<?xml version="1.0" encoding="iso-8859-1"?>
<!-- Uploaded to: SVG Repo, www.svgrepo.com, Generator: SVG Repo Mixer Tools -->
<svg height="800px" width="800px" version="1.1" id="Layer_1" xmlns="http://www.w3.org/2000/svg" xmlns:xlink="http://www.w3.org/1999/xlink" 
	 viewBox="0 0 512 512" xml:space="preserve">
<path style="fill:#F7B239;" d="M386.305,375.436c-11.854,9.481-25.001,14.215-37.596,16.206
	c-39.553,6.242-74.091,30.151-92.265,65.836l-0.439,0.877l-0.45-0.877c-18.163-35.685-52.7-59.594-92.254-65.836
	c-12.607-1.991-25.754-6.725-37.596-16.206c11.842-7.895-28.959-27.643-35.538-73.708c13.158,9.222-1.316-34.211,9.211-53.96
	c13.158,9.211,28.959-25.001,31.591-52.644c23.685,5.263,39.486-19.737,39.486-46.065c15.79,2.632,31.58-10.527,31.58-43.433
	c7.906,7.895,26.328-14.474,25.012-36.854c9.211,9.211,17.106-17.106,11.842-42.117C249.427,33.233,256.006,0,256.006,0
	s6.579,33.233,17.106,26.654c-5.263,25.012,2.632,51.328,11.842,42.117c-1.316,22.38,17.117,44.749,25.012,36.854
	c0,32.907,15.79,46.065,31.591,43.433c0,26.328,15.79,51.328,39.486,46.065c2.632,27.643,18.421,61.855,31.58,52.644
	c10.527,19.749-3.947,63.182,9.211,53.96C415.254,347.792,374.452,367.541,386.305,375.436z"/>
<path style="fill:#E09B2D;" d="M256.006,0v458.355l-0.45-0.877c-18.163-35.685-52.7-59.594-92.254-65.836
	c-12.607-1.991-25.754-6.725-37.596-16.206c11.842-7.895-28.959-27.643-35.538-73.708c13.158,9.222-1.316-34.211,9.211-53.96
	c13.158,9.211,28.959-25.001,31.591-52.644c23.685,5.263,39.486-19.737,39.486-46.065c15.79,2.632,31.58-10.527,31.58-43.433
	c7.906,7.895,26.328-14.474,25.012-36.854c9.211,9.211,17.106-17.106,11.842-42.117C249.427,33.233,256.006,0,256.006,0z"/>
<path style="fill:#995C0D;" d="M354.966,289.653c-2.923-1.045-6.142,0.478-7.186,3.404c-12.266,34.347-61.38,62.868-83.343,74.178
	V293.76c4.171-2.091,10.029-5.186,16.252-8.981c16.116-9.832,26.302-19.248,30.274-27.986c1.285-2.827,0.035-6.162-2.791-7.446
	c-2.827-1.284-6.162-0.035-7.446,2.791c-4.685,10.306-22.932,21.845-36.288,28.981v-72.153l15.469-8.63
	c2.713-1.513,3.684-4.938,2.171-7.65c-1.514-2.713-4.941-3.683-7.65-2.171l-9.99,5.574v-61.39c0-4.658-3.777-8.435-8.435-8.435
	c-4.658,0-8.435,3.777-8.435,8.435v61.39l-9.99-5.574c-2.711-1.515-6.137-0.541-7.65,2.171c-1.514,2.713-0.541,6.137,2.171,7.65
	l15.469,8.63v72.153c-13.355-7.137-31.602-18.674-36.287-28.981c-1.287-2.827-4.618-4.078-7.446-2.791
	c-2.827,1.285-4.077,4.619-2.791,7.446c7.279,16.013,34.014,30.787,46.526,36.998v73.451
	c-21.958-11.299-71.062-39.797-83.343-74.183c-1.044-2.925-4.263-4.451-7.186-3.404c-2.925,1.045-4.449,4.262-3.404,7.186
	c7.411,20.753,26.602,41.555,57.04,61.83c15.143,10.087,29.175,17.401,36.894,21.177v123.719c0,4.658,3.777,8.435,8.435,8.435
	c4.658,0,8.435-3.777,8.435-8.435V379.847c7.717-3.775,21.75-11.09,36.894-21.177c30.437-20.274,49.629-41.076,57.04-61.83
	C359.416,293.916,357.892,290.698,354.966,289.653z"/>
</svg>